<svg width="312" height="233" viewBox="0 0 312 233" fill="none" xmlns="http://www.w3.org/2000/svg">
<rect width="312" height="233" fill="white"/>
<path fill-rule="evenodd" clip-rule="evenodd" d="M146.137 1.22643C177.748 -5.97581 206.274 20.1576 229.992 37.5258C251.017 52.9222 262.978 72.8309 272.499 93.7598C282.192 115.066 300.281 139.538 285.25 158.993C269.962 178.783 230.296 174.103 202.881 183.874C182.644 191.086 167.895 204.639 146.137 208.573C119.351 213.416 86.2133 222.465 65.5354 208.707C44.5361 194.736 61.8497 167.746 54.1954 147.402C47.0089 128.301 13.4763 113.078 22.5437 94.4402C31.6999 75.6197 73.623 83.0355 92.3992 68.8745C117.647 49.8331 111.996 9.005 146.137 1.22643Z" fill="#FEEBB3"/>
<path d="M68.8453 176.238L68.0641 219.591L0.104162 219.748L0 175.815L68.8453 176.238Z" fill="#EBEBEB"/>
<path d="M29.3524 198.029C29.5669 186.093 29.6681 176.415 29.5787 176.414C29.4892 176.412 29.2428 186.087 29.0284 198.023C28.814 209.96 28.7128 219.637 28.8022 219.639C28.8917 219.641 29.138 209.966 29.3524 198.029Z" fill="#E0E0E0"/>
<path d="M0.0983887 219.748C0.178558 219.588 0.271444 219.435 0.376152 219.29L1.21523 218.016L4.36903 213.382L14.8605 198.126C18.9575 192.177 22.6437 186.773 25.2767 182.841C26.5903 180.871 27.6377 179.267 28.3552 178.161L29.1712 176.875C29.2594 176.72 29.3601 176.573 29.4721 176.435C29.4017 176.597 29.3185 176.754 29.2233 176.904L28.4594 178.224C27.7708 179.383 26.7581 180.981 25.4676 182.968C22.8867 186.936 19.2295 192.363 15.1324 198.311C11.0354 204.26 7.28556 209.617 4.56578 213.492L1.33097 218.068L0.439807 219.308C0.338969 219.464 0.224734 219.611 0.0983887 219.748Z" fill="#E0E0E0"/>
<path d="M28.8008 219.626C28.685 219.492 28.5805 219.349 28.4883 219.197L27.6434 217.941L24.5764 213.307L14.3744 198.062C10.3757 192.114 6.79367 186.71 4.24749 182.759C2.9744 180.784 1.93277 179.186 1.26151 178.068L0.468721 176.782C0.369518 176.637 0.28242 176.484 0.208313 176.324C0.323934 176.459 0.428443 176.602 0.5208 176.753L1.36567 178.01L4.43266 182.644L14.6348 197.888C18.6334 203.831 22.2154 209.241 24.7616 213.185C26.0347 215.16 27.0763 216.759 27.7476 217.877L28.5404 219.163C28.6393 219.31 28.7264 219.465 28.8008 219.626Z" fill="#E0E0E0"/>
<path d="M35.8173 214.712L46.7294 214.908L46.7696 212.673L35.8574 212.476L35.8173 214.712Z" fill="#E0E0E0"/>
<path d="M41.7007 210.804C44.6505 210.787 47.0414 210.701 47.0409 210.611C47.0404 210.522 44.6487 210.463 41.6988 210.48C38.749 210.497 36.3581 210.583 36.3587 210.673C36.3592 210.762 38.7509 210.821 41.7007 210.804Z" fill="#E0E0E0"/>
<path d="M50.8774 175.989L50.5765 192.728L48.2212 190.857L45.1716 192.629L45.4725 175.896L50.8774 175.989Z" fill="#E0E0E0"/>
<path d="M60.6917 143.408L60.0957 176.492L8.2288 176.614L8.15356 143.084L60.6917 143.408Z" fill="#F5F5F5"/>
<path d="M30.5557 160.033C30.7193 150.924 30.7975 143.539 30.7304 143.538C30.6633 143.537 30.4763 150.92 30.3127 160.029C30.1491 169.138 30.0708 176.523 30.1379 176.524C30.205 176.525 30.3921 169.142 30.5557 160.033Z" fill="#E0E0E0"/>
<path d="M8.22879 176.608C8.28864 176.487 8.35831 176.371 8.43711 176.261L9.07945 175.288L11.4867 171.749L19.4956 160.124C22.6205 155.583 25.4387 151.436 27.4409 148.459C28.442 146.959 29.2406 145.731 29.7903 144.885L30.4153 143.9C30.4835 143.783 30.5609 143.67 30.6468 143.565C30.593 143.689 30.5291 143.809 30.4558 143.924L29.8771 144.931C29.3505 145.794 28.5751 147.034 27.5914 148.552C25.6238 151.581 22.8288 155.722 19.704 160.263C16.5791 164.804 13.7147 168.893 11.6372 171.847L9.16625 175.322L8.4892 176.267C8.41197 176.388 8.32486 176.502 8.22879 176.608Z" fill="#E0E0E0"/>
<path d="M30.1318 176.516C30.044 176.414 29.9647 176.306 29.8945 176.191L29.2522 175.236L26.9375 171.697L19.1022 160.06C16.0525 155.519 13.3154 151.372 11.371 148.383C10.3989 146.878 9.635 145.655 9.09104 144.804L8.51236 143.819C8.4374 143.707 8.37161 143.589 8.31561 143.466C8.40338 143.567 8.48273 143.676 8.55287 143.79L9.1952 144.746L11.5099 148.285L19.3221 159.898C22.3717 164.433 25.1088 168.586 27.0474 171.575C28.0196 173.081 28.7835 174.303 29.3274 175.154L29.9061 176.139C29.9921 176.258 30.0677 176.384 30.1318 176.516Z" fill="#E0E0E0"/>
<path d="M35.8769 172.523L44.204 172.689L44.2382 170.981L35.911 170.814L35.8769 172.523Z" fill="#E0E0E0"/>
<path d="M39.9833 169.778C42.2332 169.765 44.0568 169.7 44.0564 169.633C44.056 169.566 42.2318 169.522 39.9819 169.535C37.7319 169.548 35.9083 169.613 35.9087 169.68C35.9091 169.747 37.7333 169.791 39.9833 169.778Z" fill="#EBEBEB"/>
<path d="M50.2003 143.217L49.9746 155.989L48.1749 154.558L45.8429 155.913L46.0743 143.142L50.2003 143.217Z" fill="#E0E0E0"/>
<path d="M66.3107 216.62C65.7022 214.817 64.5641 213.24 63.0453 212.095C61.5265 210.949 59.6978 210.29 57.7983 210.202L56.207 122.539H63.8687V123.848H65.3096V120.709H53.4062C53.4062 120.709 54.8239 185.383 55.854 210.289C53.6017 210.636 51.5529 211.793 50.0906 213.542C48.6283 215.291 47.8527 217.514 47.9087 219.794L20.7745 219.429L21.55 222.997L48.3022 222.261C48.337 222.383 48.3659 222.51 48.4064 222.632C48.7762 223.841 49.3844 224.963 50.1949 225.932C51.0055 226.902 52.0019 227.699 53.1254 228.276C54.2489 228.854 55.4767 229.2 56.7361 229.294C57.9955 229.389 59.2611 229.23 60.458 228.826C61.6549 228.423 62.7589 227.783 63.7047 226.945C64.6504 226.108 65.4188 225.089 65.9644 223.948C66.5101 222.808 66.8218 221.57 66.8813 220.308C66.9408 219.045 66.7467 217.783 66.3107 216.597V216.62Z" fill="#E0E0E0"/>
<path d="M25.9768 228.227H27.4177L30.1838 222.789L27.8923 222.852L25.9768 228.227Z" fill="#E0E0E0"/>
<path d="M139.826 24.016H81.2869V143.837H139.826V24.016Z" fill="#EBEBEB"/>
<path d="M110.533 24.016C110.533 24.016 98.5315 78.3689 81.2637 82.0874C81.2637 82.0874 88.2426 120.211 88.8734 143.843H81.2869V24.016H110.533Z" fill="#E0E0E0"/>
<path d="M110.753 24.016C110.753 24.016 122.755 78.3689 140.046 82.0816C140.046 82.0816 133.067 120.205 132.436 143.837H140.046V24.016H110.753Z" fill="#E0E0E0"/>
<path d="M111.627 23.7901H109.492V143.843H111.627V23.7901Z" fill="#FAFAFA"/>
<path d="M95.3546 23.7901H94.8279V143.843H95.3546V23.7901Z" fill="#FAFAFA"/>
<path d="M126.956 23.7901H126.43V143.843H126.956V23.7901Z" fill="#FAFAFA"/>
<path d="M139.832 53.5556V54.0363L81.2869 54.2796V53.7989L139.832 53.5556Z" fill="#FAFAFA"/>
<path d="M139.832 113.173V113.643L81.2869 113.88V113.405L139.832 113.173Z" fill="#FAFAFA"/>
<path d="M139.826 82.7245H81.2869V84.7227H139.826V82.7245Z" fill="#FAFAFA"/>
<path d="M140.694 144.706H80.442V23.1472H140.694V144.706ZM82.1549 142.968H138.958V24.8848H82.1781L82.1549 142.968Z" fill="#F5F5F5"/>
<path d="M311.132 24.016H252.593V143.837H311.132V24.016Z" fill="#EBEBEB"/>
<path d="M281.862 24.016C281.862 24.016 269.861 78.3689 252.593 82.0874C252.593 82.0874 259.572 120.211 260.203 143.843H252.593V24.016H281.862Z" fill="#E0E0E0"/>
<path d="M282.059 24.016C282.059 24.016 294.061 78.3689 311.335 82.0816C311.335 82.0816 304.356 120.205 303.725 143.837H311.335V24.016H282.059Z" fill="#E0E0E0"/>
<path d="M282.933 23.7901H280.798V143.843H282.933V23.7901Z" fill="#FAFAFA"/>
<path d="M266.661 23.7901H266.134V143.843H266.661V23.7901Z" fill="#FAFAFA"/>
<path d="M298.262 23.7901H297.736V143.843H298.262V23.7901Z" fill="#FAFAFA"/>
<path d="M311.132 53.5556V54.0363L252.593 54.2796V53.7989L311.132 53.5556Z" fill="#FAFAFA"/>
<path d="M311.132 113.173V113.643L252.593 113.88V113.405L311.132 113.173Z" fill="#FAFAFA"/>
<path d="M311.132 82.7245H252.593V84.7227H311.132V82.7245Z" fill="#FAFAFA"/>
<path d="M312 144.706H251.731V23.1472H312V144.706ZM253.461 142.968H310.264V24.8848H253.467L253.461 142.968Z" fill="#F5F5F5"/>
<path d="M129.103 211.054C127.006 210.07 124.65 209.783 122.379 210.237C121.158 210.44 119.891 210.816 119.057 211.72C118.224 212.623 118.068 214.251 119.022 215.039C119.637 215.456 120.378 215.644 121.117 215.572C122.894 215.572 124.867 215.236 126.285 216.307C127.095 216.915 127.633 217.935 128.6 218.236C129.084 218.344 129.59 218.292 130.044 218.09C130.497 217.888 130.873 217.545 131.117 217.112C131.58 216.219 131.681 215.182 131.4 214.216C131.286 213.548 131.019 212.915 130.621 212.367C130.222 211.818 129.703 211.369 129.103 211.054Z" fill="#EBEBEB"/>
<path d="M133.79 202.001C132.54 203.791 130.11 203.194 128.982 202.105C127.853 201.016 127.379 199.435 126.945 197.923C125.955 194.477 124.954 190.863 125.695 187.353C125.868 186.281 126.335 185.279 127.043 184.457C127.399 184.057 127.853 183.757 128.361 183.587C128.869 183.418 129.412 183.384 129.936 183.489C131.163 183.814 131.921 185.013 132.471 186.159C134.093 189.534 134.943 193.228 134.959 196.973C134.959 198.711 134.763 200.541 133.802 201.978" fill="#EBEBEB"/>
<path d="M137.222 204.567C136.58 203.727 136.152 202.743 135.976 201.701C135.799 200.658 135.879 199.588 136.209 198.583C136.895 196.576 138.12 194.796 139.751 193.44C141.608 191.788 143.771 190.515 146.116 189.693C147.021 189.326 147.994 189.16 148.969 189.206C149.456 189.234 149.929 189.38 150.347 189.632C150.764 189.885 151.114 190.236 151.365 190.654C152.03 191.928 151.365 193.475 150.699 194.709C149.48 196.939 148.087 199.069 146.533 201.08C145.283 202.69 143.854 204.283 141.95 205.007C140.046 205.731 138.073 205.65 137.06 204.329" fill="#EBEBEB"/>
<path d="M133.877 228.969C133.81 228.703 133.771 228.431 133.761 228.158L133.547 225.939C133.437 224.848 133.271 223.764 133.05 222.69C132.767 221.383 132.38 220.101 131.892 218.856C131.408 217.611 130.749 216.441 129.936 215.38C129.274 214.517 128.428 213.813 127.46 213.319C126.804 212.994 126.101 212.775 125.376 212.67C125.103 212.66 124.831 212.621 124.566 212.554C124.839 212.524 125.115 212.524 125.388 212.554C126.142 212.615 126.879 212.812 127.564 213.133C128.582 213.616 129.475 214.327 130.174 215.213C131.022 216.287 131.707 217.482 132.205 218.757C132.702 220.021 133.09 221.325 133.362 222.655C133.573 223.742 133.718 224.841 133.796 225.945C133.866 226.889 133.895 227.648 133.906 228.175C133.924 228.44 133.914 228.706 133.877 228.969Z" fill="#E0E0E0"/>
<path d="M133.721 227.26C133.706 227.135 133.706 227.009 133.721 226.884C133.721 226.6 133.721 226.246 133.721 225.806C133.721 224.868 133.721 223.489 133.675 221.844C133.594 218.502 133.304 213.886 132.749 208.812C132.193 203.738 131.447 199.174 130.77 195.902C130.608 195.079 130.451 194.344 130.295 193.695C130.139 193.046 130.029 192.49 129.907 192.033L129.653 190.984C129.617 190.864 129.596 190.739 129.589 190.614C129.648 190.725 129.692 190.844 129.722 190.967L130.035 191.998C130.174 192.444 130.312 193 130.48 193.649C130.648 194.297 130.828 195.027 131.001 195.85C131.923 200.117 132.617 204.43 133.079 208.772C133.657 213.857 133.889 218.485 133.906 221.833C133.906 223.507 133.906 224.862 133.848 225.8L133.785 226.878C133.779 227.007 133.758 227.136 133.721 227.26Z" fill="#E0E0E0"/>
<path d="M133.68 218.334C133.651 217.96 133.651 217.585 133.68 217.211C133.721 216.487 133.819 215.444 134.028 214.158C134.273 212.66 134.604 211.177 135.017 209.716C135.511 207.921 136.132 206.164 136.875 204.457C138.173 201.315 140.032 198.435 142.361 195.96C142.763 195.535 143.192 195.137 143.645 194.767C143.842 194.599 144.016 194.436 144.195 194.303L144.693 193.961C144.993 193.744 145.311 193.55 145.642 193.382C144.551 194.242 143.515 195.168 142.54 196.157C140.299 198.656 138.501 201.52 137.222 204.625C136.485 206.319 135.861 208.061 135.353 209.837C134.928 211.286 134.577 212.755 134.3 214.239C134.068 215.508 133.935 216.556 133.854 217.257C133.823 217.62 133.765 217.98 133.68 218.334Z" fill="#E0E0E0"/>
<path d="M262.031 210.492C253.617 204.978 251.482 194.425 251.574 184.891C251.574 183.298 251.372 181.624 252.107 180.211C252.842 178.798 254.601 177.801 256.059 178.439C257.269 178.966 257.795 180.327 258.519 181.45C259.453 182.949 260.791 184.154 262.378 184.926C263.414 185.43 264.693 185.719 265.688 185.14C267.06 184.352 267.176 182.453 267.129 180.871C267.041 177.925 266.95 174.977 266.857 172.027C266.724 170.447 266.849 168.857 267.228 167.318C267.691 165.806 268.755 164.381 270.266 163.924C271.776 163.466 273.686 164.289 274.045 165.829C274.12 166.483 274.151 167.141 274.137 167.799C274.136 168.128 274.233 168.45 274.415 168.725C274.598 168.999 274.857 169.213 275.161 169.339C275.804 169.507 276.434 169.044 276.897 168.569C278.512 166.93 279.582 164.85 280.578 162.777C281.573 160.703 282.54 158.589 283.998 156.811C285.456 155.033 287.47 153.602 289.785 153.423C292.099 153.243 294.553 154.581 295.184 156.788C295.814 158.995 294.559 161.3 293.17 163.159C291.107 165.884 288.663 168.297 285.913 170.324C285.374 170.632 284.948 171.105 284.698 171.673C284.374 172.733 285.416 173.759 286.475 174.083C287.678 174.448 288.969 174.291 290.224 174.407C291.48 174.523 292.84 175.033 293.343 176.191C294.038 177.79 292.713 179.522 291.393 180.663C288.744 182.954 285.722 184.774 282.459 186.044C281.301 186.495 280.063 186.901 279.131 187.741C278.199 188.581 277.661 190.017 278.263 191.117C278.865 192.218 280.346 192.542 281.573 192.276C282.8 192.009 283.888 191.332 285.045 190.868C287.227 189.994 290.068 190.075 291.526 191.923C291.971 192.556 292.262 193.286 292.374 194.052C292.487 194.819 292.419 195.601 292.175 196.336C291.677 197.801 290.889 199.15 289.86 200.304C286.459 204.536 282.001 207.793 276.938 209.745C271.874 211.616 267.158 212.201 262.043 210.492" fill="#FDCB35"/>
<path d="M292.817 154.685C292.772 154.742 292.721 154.794 292.666 154.842L292.203 155.27C291.793 155.647 291.191 156.203 290.427 156.938C288.278 159.008 286.288 161.237 284.472 163.605C283.315 165.099 282.117 166.791 280.867 168.627C279.617 170.463 278.298 172.438 276.984 174.564C275.598 176.777 274.335 179.064 273.2 181.416C272.621 182.638 272.094 183.918 271.562 185.221L269.959 189.183C267.893 194.197 266.112 199.323 264.624 204.538C263.429 208.801 262.643 213.169 262.274 217.581C262.037 220.557 262.06 223.547 262.344 226.519C262.454 227.567 262.558 228.384 262.645 228.934L262.737 229.559C262.744 229.631 262.744 229.703 262.737 229.774C262.714 229.706 262.697 229.636 262.685 229.565L262.569 228.94C262.459 228.395 262.344 227.579 262.216 226.524C261.888 223.547 261.833 220.546 262.054 217.558C262.4 213.128 263.176 208.742 264.369 204.462C265.845 199.232 267.623 194.092 269.693 189.067L271.296 185.105C271.828 183.808 272.349 182.516 272.945 181.288C274.088 178.928 275.361 176.632 276.759 174.413C278.078 172.287 279.409 170.312 280.67 168.476C281.932 166.64 283.141 164.955 284.31 163.466C286.145 161.102 288.166 158.889 290.352 156.846C291.121 156.122 291.741 155.577 292.163 155.218L292.649 154.807C292.701 154.762 292.758 154.721 292.817 154.685Z" fill="#263238"/>
<path d="M273.032 181.271C272.949 181.054 272.891 180.829 272.858 180.599C272.766 180.165 272.65 179.527 272.517 178.746C272.251 177.176 271.938 174.998 271.649 172.594C271.359 170.191 271.018 168.019 270.729 166.461C270.59 165.679 270.463 165.047 270.376 164.613C270.309 164.398 270.267 164.177 270.248 163.953C270.346 164.164 270.42 164.385 270.468 164.613C270.59 165.041 270.746 165.667 270.914 166.443C271.255 168.001 271.608 170.173 271.921 172.583L272.702 178.746L272.951 180.611C273.001 180.827 273.028 181.049 273.032 181.271Z" fill="#263238"/>
<path d="M293.523 176.979C293.255 177.043 292.982 177.082 292.707 177.095C292.18 177.153 291.416 177.234 290.479 177.367C288.598 177.61 286.012 178.045 283.182 178.641C280.352 179.238 277.812 179.898 275.989 180.42C275.075 180.674 274.34 180.9 273.836 181.057C273.577 181.153 273.31 181.224 273.038 181.271C273.282 181.139 273.537 181.031 273.802 180.947C274.299 180.761 275.023 180.501 275.931 180.217C277.742 179.638 280.283 178.954 283.124 178.346C285.546 177.825 287.993 177.427 290.456 177.153C291.399 177.048 292.192 176.996 292.701 176.973C292.975 176.949 293.25 176.951 293.523 176.979Z" fill="#263238"/>
<path d="M264.618 204.08C264.559 204.006 264.51 203.924 264.473 203.837L264.103 203.113C263.785 202.482 263.351 201.549 262.824 200.396C261.777 198.08 260.422 194.859 258.987 191.274C257.552 187.689 256.227 184.451 255.232 182.128L254.045 179.377L253.727 178.63C253.692 178.623 253.66 178.604 253.638 178.575C253.616 178.546 253.606 178.51 253.609 178.474C253.612 178.438 253.629 178.405 253.656 178.38C253.682 178.356 253.717 178.343 253.753 178.343C253.789 178.343 253.824 178.356 253.851 178.38C253.877 178.405 253.894 178.438 253.897 178.474C253.901 178.51 253.89 178.546 253.868 178.575C253.847 178.604 253.815 178.623 253.779 178.63L254.15 179.354C254.468 179.985 254.902 180.912 255.428 182.07C256.482 184.387 257.83 187.607 259.271 191.193C260.712 194.778 262.025 198.016 263.027 200.339L264.219 203.09L264.537 203.837C264.574 203.914 264.601 203.996 264.618 204.08Z" fill="#263238"/>
<path d="M291.764 194.72C291.681 194.771 291.591 194.81 291.497 194.836L290.71 195.12L287.817 196.128C285.363 196.979 281.99 198.195 278.263 199.539C274.536 200.883 271.145 202.07 268.669 202.875C267.43 203.275 266.429 203.594 265.729 203.796L264.925 204.022C264.831 204.056 264.734 204.078 264.635 204.086C264.718 204.035 264.808 203.996 264.901 203.97L265.688 203.686L268.582 202.678C271.035 201.827 274.409 200.611 278.142 199.267C281.874 197.923 285.259 196.736 287.73 195.936C288.969 195.537 289.97 195.218 290.67 195.015L291.474 194.784C291.567 194.75 291.665 194.728 291.764 194.72Z" fill="#263238"/>
<path d="M70.1589 227.399L71.1022 221.503L60.5587 219.765L59.0309 228.546L59.6791 228.696C62.5725 229.351 74.4122 231.621 76.4607 231.332C78.7696 231.007 70.1589 227.399 70.1589 227.399Z" fill="#FDCB35"/>
<path d="M76.8145 230.826C76.8301 230.728 72.8954 230.016 68.026 229.236C63.1565 228.457 59.1964 227.904 59.1807 228.002C59.1651 228.1 63.0999 228.811 67.9693 229.591C72.8387 230.371 76.7988 230.923 76.8145 230.826Z" fill="#263238"/>
<path d="M70.1531 228.633C70.0721 228.575 70.1994 228.274 70.4714 228.001C70.7434 227.729 71.0501 227.607 71.108 227.689C71.1658 227.77 70.9807 228.007 70.726 228.268C70.4714 228.528 70.2341 228.696 70.1531 228.633Z" fill="#263238"/>
<path d="M70.7607 229.131C70.6739 229.084 70.7607 228.743 71.0443 228.407C71.3279 228.071 71.623 227.891 71.6866 227.967C71.7503 228.042 71.5767 228.32 71.3279 228.633C71.079 228.945 70.8533 229.183 70.7607 229.131Z" fill="#263238"/>
<path d="M62.3699 228.476C62.3236 228.476 62.1905 228.32 62.0053 228.025C61.7815 227.642 61.5219 227.281 61.2299 226.947C60.9408 226.63 60.5737 226.395 60.1652 226.264C59.8527 226.171 59.6328 226.189 59.6212 226.131C59.6096 226.073 59.8295 225.974 60.1999 226.009C60.6931 226.08 61.1457 226.321 61.4787 226.692C61.7976 227.047 62.0487 227.457 62.2195 227.903C62.3641 228.245 62.4104 228.459 62.3699 228.476Z" fill="#263238"/>
<path d="M70.3615 227.532C70.402 227.625 70.1879 227.799 69.8696 227.862C69.5513 227.926 69.2909 227.862 69.2909 227.747C69.2909 227.631 69.5224 227.567 69.8002 227.509C70.0779 227.451 70.321 227.434 70.3615 227.532Z" fill="#263238"/>
<path d="M70.2862 226.93C70.2862 227.028 69.9853 227.069 69.6265 227.017C69.2677 226.965 68.9958 226.843 69.0478 226.745C69.0999 226.646 69.3661 226.606 69.7075 226.658C70.049 226.71 70.292 226.831 70.2862 226.93Z" fill="#263238"/>
<path d="M107.478 226.125L107.258 220.159L96.5698 220.483L96.8128 229.409H97.4783C100.43 229.49 112.524 229.409 114.451 228.731C116.621 227.99 107.478 226.125 107.478 226.125Z" fill="#FDCB35"/>
<path d="M106.669 228.367C111.6 228.169 115.595 227.929 115.591 227.829C115.587 227.73 111.586 227.81 106.654 228.007C101.723 228.205 97.7287 228.445 97.7327 228.544C97.7366 228.644 101.737 228.564 106.669 228.367Z" fill="#263238"/>
<path d="M107.709 227.335C107.622 227.295 107.709 226.976 107.9 226.658C108.091 226.339 108.392 226.159 108.479 226.229C108.566 226.298 108.415 226.565 108.219 226.86C108.022 227.156 107.802 227.382 107.709 227.335Z" fill="#263238"/>
<path d="M108.404 227.706C108.311 227.677 108.346 227.318 108.543 226.942C108.739 226.565 109.006 226.328 109.087 226.362C109.168 226.397 109.046 226.733 108.867 227.086C108.687 227.44 108.502 227.741 108.404 227.706Z" fill="#263238"/>
<path d="M100.042 228.702C100.001 228.731 99.8335 228.581 99.5963 228.326C99.3014 227.995 98.9759 227.692 98.6241 227.422C98.2845 227.171 97.8859 227.011 97.4667 226.959C97.1427 226.93 96.9286 226.959 96.888 226.959C96.8475 226.959 97.0616 226.762 97.4667 226.727C97.9649 226.7 98.4566 226.85 98.8555 227.15C99.2367 227.436 99.5623 227.789 99.8162 228.193C99.9898 228.465 100.082 228.673 100.042 228.702Z" fill="#263238"/>
<path d="M107.698 226.217C107.756 226.299 107.576 226.513 107.275 226.634C106.974 226.756 106.697 226.727 106.697 226.634C106.697 226.542 106.888 226.409 107.154 226.299C107.42 226.189 107.64 226.131 107.698 226.217Z" fill="#263238"/>
<path d="M107.513 225.644C107.513 225.742 107.246 225.841 106.882 225.858C106.517 225.876 106.234 225.812 106.234 225.708C106.234 225.603 106.517 225.511 106.864 225.493C107.212 225.476 107.495 225.546 107.513 225.644Z" fill="#263238"/>
<path d="M121.968 77.61L121.389 75.6697C121.182 74.5471 120.866 73.4472 120.446 72.3856C120.244 71.8509 119.955 71.3536 119.59 70.9144C119.158 70.3505 118.652 69.8478 118.085 69.42C117.506 69.0841 117.651 68.2616 118.235 68.2037C118.82 68.1458 120.371 69.0493 121.563 70.7812C122.755 72.513 122.981 69.2521 123.079 68.0647C123.177 66.8773 123.658 63.2225 124.057 62.9735C124.636 62.6086 125.133 63.1646 125.006 64.352C124.879 65.5393 124.734 69.1131 125.365 69.1536C125.996 69.1942 126.424 63.1414 126.424 63.1414C126.424 63.1414 126.308 61.8266 127.031 61.8498C128.339 61.8903 127.402 68.279 127.298 68.8814C127.222 69.3042 127.876 69.3679 127.957 68.9161C128.038 68.4643 128.258 62.8634 129.589 62.8924C130.613 62.8924 128.866 68.1574 129.456 69.3563C130.046 70.5553 130.376 65.2382 131.348 65.3019C131.713 65.3019 131.979 65.3945 131.348 68.4122C130.718 71.4299 127.604 79.5562 127.604 79.5562L121.922 77.5232" fill="#FFBE9D"/>
<path d="M82.8725 76.0115L92.4901 76.7239C92.6174 75.6118 92.8026 71.2851 92.8026 71.2851C92.8026 71.2851 96.8186 70.9086 97.1137 66.9353C97.4089 62.9619 97.2816 53.7757 97.2816 53.7757C95.0803 52.6634 92.6222 52.1596 90.1613 52.3165C87.7004 52.4733 85.3259 53.285 83.2833 54.6677L82.6642 55.0847L82.8725 76.0115Z" fill="#FFBE9D"/>
<path d="M96.7668 60.5648C96.9956 60.3415 97.0003 59.9748 96.7772 59.7458C96.5541 59.5167 96.1877 59.512 95.9589 59.7353C95.73 59.9586 95.7254 60.3253 95.9485 60.5544C96.1716 60.7835 96.5379 60.7881 96.7668 60.5648Z" fill="#263238"/>
<path d="M96.9691 59.6952C96.8996 59.7589 96.5293 59.4345 95.9853 59.3998C95.4414 59.365 95.0247 59.6199 94.9669 59.5504C94.909 59.4809 95.0074 59.394 95.1925 59.2781C95.4371 59.1236 95.7246 59.0515 96.013 59.0723C96.3015 59.0932 96.5757 59.2059 96.7955 59.394C96.9459 59.5504 96.998 59.6952 96.9691 59.6952Z" fill="#263238"/>
<path d="M90.7755 60.6083C90.9594 60.3467 90.8965 59.9854 90.6351 59.8013C90.3737 59.6173 90.0127 59.6802 89.8289 59.9419C89.645 60.2035 89.7079 60.5648 89.9693 60.7489C90.2307 60.9329 90.5917 60.87 90.7755 60.6083Z" fill="#263238"/>
<path d="M90.9855 59.8226C90.9219 59.8863 90.5457 59.562 90.0018 59.5272C89.4578 59.4925 89.0412 59.7473 88.9833 59.6778C88.9254 59.6083 89.0238 59.5214 89.209 59.3998C89.4535 59.2452 89.741 59.1731 90.0295 59.1939C90.3179 59.2148 90.5921 59.3275 90.8119 59.5156C90.9682 59.6662 91.0203 59.7937 90.9855 59.8226Z" fill="#263238"/>
<path d="M92.9068 64.4794C93.1967 64.3878 93.4997 64.3447 93.8037 64.352C93.9484 64.352 94.0641 64.3231 94.0815 64.242C94.0963 64.0968 94.0702 63.9503 94.0062 63.8191L93.6417 62.6607C93.2908 61.6936 93.035 60.6946 92.8778 59.6778C93.3204 60.6067 93.6712 61.5766 93.9252 62.5738L94.2666 63.7323C94.3426 63.9158 94.3568 64.1191 94.3071 64.3115C94.283 64.3642 94.2469 64.4105 94.2017 64.4467C94.1565 64.4829 94.1034 64.508 94.0467 64.52C93.9661 64.5308 93.8843 64.5308 93.8037 64.52C93.5045 64.5558 93.2015 64.5421 92.9068 64.4794Z" fill="#263238"/>
<path d="M91.0897 64.9775C90.511 64.6011 92.6116 65.9101 93.7285 65.9274C93.525 66.2037 93.234 66.4028 92.903 66.4923C92.5719 66.5817 92.2203 66.5561 91.9056 66.4198C90.7425 65.9043 91.0897 64.9775 91.0897 64.9775Z" fill="white"/>
<path d="M92.8142 71.2271C90.9762 71.1483 89.2033 70.5232 87.7218 69.4316C87.7218 69.4316 88.7692 72.374 92.7621 72.2581L92.8142 71.2271Z" fill="#EB996E"/>
<path d="M82.7567 59.1159L83.2428 61.9714L85.0136 61.9367L84.8978 55.994C84.8978 55.994 91.923 56.5327 92.7274 53.7235C92.7274 53.7235 94.7933 56.8339 97.3568 56.8223C97.3568 56.8223 99.6079 56.5906 97.4668 53.4629C94.1683 48.6439 82.4211 52.513 82.4211 52.513C82.1245 53.3934 81.9797 54.3178 81.9929 55.2468C81.9466 58.3224 82.7567 59.1159 82.7567 59.1159Z" fill="#263238"/>
<path opacity="0.2" d="M81.7903 56.2199C82.0102 56.1794 100.921 56.6254 102.27 54.0015C102.912 52.7505 97.3221 52.7157 97.3221 52.7157L97.4494 53.1096L81.7903 56.2199Z" fill="#CAA22A"/>
<path d="M81.7903 56.2199L97.4436 53.1096C97.4436 53.1096 96.3267 46.8483 87.8838 48.667C79.6666 50.4626 81.7903 56.2199 81.7903 56.2199Z" fill="#FDCB35"/>
<path d="M81.7903 56.2199C82.0102 56.1794 100.921 56.6254 102.27 54.0015C102.912 52.7505 97.3221 52.7157 97.3221 52.7157L97.4494 53.1096L81.7903 56.2199Z" fill="#CAA22A"/>
<path d="M83.4338 58.612C83.347 58.5773 80.4825 58.2066 80.7545 61.5949C81.0265 64.9833 84.3539 63.5874 84.3481 63.4889C84.3423 63.3905 83.4338 58.612 83.4338 58.612Z" fill="#FFBE9D"/>
<path d="M83.2197 62.3769C83.2197 62.3769 83.1618 62.4232 83.0692 62.4753C82.9345 62.5485 82.7764 62.5651 82.6294 62.5217C82.3995 62.4004 82.2059 62.2201 82.0686 61.9992C81.9313 61.7783 81.8552 61.5249 81.8482 61.2648C81.8167 60.9753 81.8503 60.6824 81.9466 60.4076C81.9699 60.2998 82.0189 60.1992 82.0894 60.1145C82.16 60.0298 82.2499 59.9634 82.3517 59.921C82.4176 59.8981 82.4895 59.8989 82.5549 59.9232C82.6204 59.9475 82.6753 59.9938 82.7104 60.0543C82.7625 60.1469 82.7451 60.2164 82.7683 60.2164C82.7914 60.2164 82.8377 60.1527 82.7972 60.0137C82.7719 59.9308 82.7187 59.8592 82.6468 59.811C82.547 59.748 82.4263 59.7271 82.3111 59.7531C82.1728 59.7911 82.0467 59.8645 81.9453 59.9661C81.8438 60.0676 81.7705 60.1938 81.7325 60.3323C81.612 60.6375 81.5683 60.9677 81.6052 61.2938C81.6121 61.5971 81.7086 61.8917 81.8827 62.1401C82.0568 62.3886 82.3005 62.5798 82.5831 62.6896C82.6762 62.7086 82.7723 62.7065 82.8644 62.6834C82.9565 62.6604 83.0423 62.617 83.1155 62.5564C83.2197 62.4638 83.2312 62.3827 83.2197 62.3769Z" fill="#EB996E"/>
<path d="M92.6572 51.4152L90.7422 51.452L90.7789 53.3689L92.694 53.332L92.6572 51.4152Z" fill="#263238"/>
<path d="M92.6322 50.3753L91.6718 50.3939L91.6904 51.3552L92.6508 51.3366L92.6322 50.3753Z" fill="#263238"/>
<path d="M121.262 75.1194C121.262 75.1194 118.311 93.9553 116.222 94.0537C113.843 94.1638 106.529 83.7844 106.529 83.7844C101.847 76.5559 95.6728 75.3859 93.4218 75.2063V74.3143L82.3574 73.405C82.3574 73.405 82.3574 74.3607 82.3574 75.1889H77.4618C77.4618 75.1889 68.6833 74.7893 67.3697 86.5877L73.6773 91.5805L76.264 101.213C77.051 104.155 75.8531 107.908 74.5279 114.5L73.7352 114.314L73.3995 120.958C73.3532 121.271 73.3069 121.583 73.2664 121.908H73.3532L70.6797 174.957L57.0114 226.339L72.3984 226.918L86.5876 176.788C86.5876 176.788 87.8144 136.707 89.0643 136.683C91.1649 136.643 92.5364 225.847 93.3118 225.644C94.0872 225.441 109.92 225.603 109.92 225.603C109.92 225.603 104.694 121.67 104.746 121.67L103.392 101.977L102.877 96.2895C105.881 100.518 111.558 107.121 117.622 107.005C127.5 106.814 128.889 76.162 128.889 76.162L121.262 75.1194Z" fill="#455A64"/>
<path d="M88.503 136.284C89.7468 134.427 90.3335 132.206 90.1696 129.976C90.1696 128.175 90.1696 126.542 90.1696 125.25C90.1438 124.594 90.1689 123.938 90.2448 123.286C90.3417 123.934 90.3882 124.589 90.3837 125.244C90.4184 126.455 90.4994 128.14 90.4821 129.982C90.4728 130.857 90.3954 131.731 90.2506 132.594C90.128 133.304 89.9201 133.996 89.6314 134.656C89.4342 135.099 89.1856 135.517 88.8907 135.901C88.6477 136.151 88.5435 136.301 88.503 136.284Z" fill="#263238"/>
<path d="M79.4235 127.868C79.4765 128.045 79.5038 128.228 79.5046 128.412C79.5335 128.766 79.5682 129.275 79.5856 129.907C79.6763 131.575 79.3439 133.238 78.6192 134.743C78.1915 135.572 77.5577 136.276 76.779 136.788C76.1341 137.196 75.3943 137.429 74.6321 137.465C74.1218 137.491 73.612 137.404 73.1391 137.211C72.9619 137.149 72.8 137.051 72.6646 136.921C73.2816 137.176 73.9482 137.289 74.6147 137.251C75.331 137.188 76.0206 136.949 76.6227 136.556C77.3549 136.058 77.9515 135.385 78.3588 134.598C79.0567 133.132 79.4054 131.525 79.3773 129.901C79.3566 129.223 79.3721 128.544 79.4235 127.868Z" fill="#263238"/>
<path d="M105.84 137.095C105.84 137.095 105.748 137.263 105.458 137.454C105.043 137.708 104.562 137.833 104.075 137.813C103.353 137.779 102.659 137.52 102.09 137.072C101.409 136.536 100.822 135.89 100.354 135.16C99.4826 133.852 98.9351 132.355 98.7572 130.793C98.7061 130.324 98.6925 129.851 98.7167 129.38C98.7141 129.205 98.7395 129.031 98.7919 128.864C98.844 128.864 98.7919 129.6 98.9655 130.764C99.1997 132.275 99.7584 133.718 100.603 134.992C101.053 135.695 101.612 136.323 102.258 136.851C102.779 137.279 103.416 137.54 104.087 137.599C104.539 137.633 104.992 137.547 105.4 137.35C105.69 137.205 105.823 137.072 105.84 137.095Z" fill="#263238"/>
<path d="M73.7449 224.382C73.7482 224.298 70.3414 224.094 66.1355 223.926C61.9296 223.758 58.5174 223.689 58.5141 223.772C58.5108 223.855 61.9176 224.059 66.1235 224.227C70.3293 224.396 73.7415 224.465 73.7449 224.382Z" fill="#263238"/>
<path d="M109.376 221.19C109.166 221.245 108.95 221.274 108.734 221.277L106.998 221.404C105.516 221.497 103.468 221.613 101.211 221.717C98.9539 221.821 96.8996 221.896 95.424 221.937L93.688 221.972C93.4746 221.998 93.2589 221.998 93.0456 221.972C93.2555 221.917 93.4711 221.888 93.688 221.885L95.424 221.757C96.9054 221.659 98.9481 221.549 101.211 221.445C103.473 221.34 105.516 221.265 106.998 221.225L108.734 221.19C108.947 221.164 109.163 221.164 109.376 221.19Z" fill="#263238"/>
<path d="M80.986 137.512C80.9929 137.587 80.9929 137.663 80.986 137.738C80.986 137.9 80.986 138.126 80.986 138.404L80.9397 140.964C80.8934 143.188 80.7892 146.403 80.6272 150.37C80.4652 154.338 80.2453 159.058 79.9328 164.312C79.7765 166.936 79.6029 169.687 79.3541 172.536C79.2326 173.961 79.1169 175.433 78.868 176.881C78.6192 178.329 78.2893 179.806 77.9942 181.294C75.3555 193.139 72.3868 203.721 70.0779 211.326C68.9206 215.131 67.8789 218.172 67.1498 220.269L66.2644 222.673L66.0272 223.292C66.0028 223.365 65.9718 223.434 65.9346 223.501C65.9493 223.426 65.9706 223.352 65.9982 223.281L66.2065 222.65L67.0398 220.228C67.7343 218.12 68.7759 215.068 69.8754 211.262C72.138 203.652 75.0835 193.064 77.7049 181.23C78.0232 179.748 78.3356 178.288 78.5787 176.834C78.8217 175.38 78.9375 173.938 79.0648 172.513C79.302 169.669 79.4814 166.918 79.6435 164.294C79.9675 159.053 80.2221 154.326 80.4015 150.359L80.8066 140.958L80.9108 138.404L80.9455 137.738C80.9521 137.661 80.9657 137.586 80.986 137.512Z" fill="#263238"/>
<path d="M102.223 221.578C102.217 221.509 102.217 221.439 102.223 221.369L102.177 220.756L102.015 218.392L101.5 209.704C101.089 202.366 100.574 192.224 100.1 181.016C99.6252 169.808 99.2722 159.655 99.0523 152.305C98.9539 148.644 98.8671 145.673 98.815 143.617C98.815 142.603 98.7803 141.809 98.7688 141.248C98.7688 140.987 98.7688 140.784 98.7688 140.634C98.7623 140.564 98.7623 140.495 98.7688 140.425C98.7757 140.495 98.7757 140.564 98.7688 140.634L98.8035 141.248L98.9076 143.611L99.2433 152.299L100.401 181.004C100.875 192.212 101.355 202.354 101.714 209.698L102.131 218.387L102.235 220.75V221.364C102.238 221.435 102.234 221.507 102.223 221.578Z" fill="#263238"/>
<path d="M89.5157 73.99C89.5598 74.5084 89.5598 75.0296 89.5157 75.5481C89.5026 76.8482 89.3767 78.1447 89.1396 79.423L89.0991 79.6141L88.9255 79.5214C88.5551 79.3303 88.179 79.1218 87.797 78.9017C86.1883 77.9634 84.8226 76.9845 83.8157 76.3126C83.2578 75.9694 82.7189 75.5962 82.2012 75.1947C82.81 75.4482 83.3916 75.7626 83.9372 76.1331C84.9789 76.7644 86.3619 77.7143 87.9533 78.641C88.3294 78.8611 88.7056 79.0639 89.0643 79.2608L88.8502 79.3592C89.0912 78.0967 89.2497 76.8197 89.3248 75.5365C89.3425 75.0163 89.4064 74.4988 89.5157 73.99Z" fill="#263238"/>
<path d="M93.4507 75.2816C93.3793 75.7694 93.2729 76.2514 93.1324 76.7239C93.0283 77.1641 92.9125 77.6969 92.7216 78.2819C92.6218 78.5879 92.5039 78.8877 92.3686 79.1797C92.3252 79.283 92.2529 79.3716 92.1603 79.4345C92.0962 79.4764 92.0196 79.4946 91.9436 79.4862C91.8676 79.4777 91.7969 79.4431 91.7436 79.3882C91.6322 79.2321 91.5444 79.0603 91.4832 78.8785C90.945 77.5927 90.4705 76.4227 90.1464 75.5712C89.9511 75.1222 89.8018 74.6545 89.7009 74.1754C89.9693 74.5913 90.1942 75.0339 90.3721 75.4959C90.7483 76.3242 91.2517 77.4826 91.7899 78.7685C91.8402 78.9114 91.9041 79.0491 91.9809 79.1797C91.9809 79.1797 91.9809 79.1797 92.0272 79.1797C92.0701 79.1462 92.104 79.1023 92.1255 79.0523C92.2601 78.773 92.3798 78.4869 92.4843 78.195C92.6811 77.6158 92.82 77.1119 92.9531 76.6717C93.0567 76.1884 93.2241 75.7209 93.4507 75.2816Z" fill="#263238"/>
<path d="M91.3733 114.859C91.3446 114.724 91.3291 114.586 91.327 114.448L91.2517 113.26L91.0203 108.887L90.3721 94.4476L89.7935 80.0022L89.6604 75.6234V74.4302C89.647 74.2915 89.647 74.1519 89.6604 74.0132C89.6891 74.1484 89.7046 74.2862 89.7067 74.4244L89.7819 75.6118L90.0134 79.9848L90.673 94.4476L91.2517 108.893L91.3848 113.272V114.465C91.3928 114.596 91.389 114.728 91.3733 114.859Z" fill="#263238"/>
<path d="M98.4256 85.9878L93.1086 86.0909L93.1299 87.1912L98.4469 87.0881L98.4256 85.9878Z" fill="white"/>
<path d="M104.268 103.724C104.351 103.718 104.136 99.676 103.788 94.6955C103.439 89.7148 103.09 85.6819 103.006 85.6878C102.923 85.6936 103.138 89.7359 103.487 94.7166C103.835 99.697 104.185 103.73 104.268 103.724Z" fill="#263238"/>
<path d="M128.704 80.0141C128.723 79.933 126.967 79.4618 124.784 78.9615C122.6 78.4613 120.814 78.1215 120.796 78.2026C120.777 78.2837 122.533 78.7549 124.716 79.2551C126.9 79.7554 128.686 80.0952 128.704 80.0141Z" fill="#263238"/>
<path d="M122.44 77.5485C122.74 77.5427 122.979 77.2942 122.973 76.9936C122.967 76.693 122.719 76.454 122.418 76.4598C122.118 76.4656 121.879 76.7141 121.885 77.0147C121.891 77.3153 122.139 77.5543 122.44 77.5485Z" fill="#263238"/>
<path d="M98.3704 83.5323L96.4553 83.5692L96.492 85.486L98.4071 85.4492L98.3704 83.5323Z" fill="#FDCB35"/>
<path d="M98.3508 82.4856L97.3904 82.5042L97.409 83.4655L98.3694 83.4469L98.3508 82.4856Z" fill="#FDCB35"/>
<path d="M127.043 93.3645L126.262 124.288L77.7686 124.045L77.9248 92.6984L127.043 93.3645Z" fill="#FDCB35"/>
<path d="M98.7803 108.69C98.9957 100.174 99.1029 93.2693 99.0199 93.2672C98.9368 93.2651 98.6949 100.167 98.4795 108.683C98.2642 117.199 98.1569 124.104 98.24 124.106C98.323 124.108 98.565 117.206 98.7803 108.69Z" fill="#263238"/>
<path d="M77.7686 124.039C77.8205 123.923 77.8845 123.812 77.9595 123.709L78.5382 122.8L80.8008 119.504L88.3584 108.685C91.3154 104.462 93.9773 100.628 95.8812 97.842C96.8302 96.4459 97.6172 95.3106 98.1091 94.5229L98.6878 93.6135C98.7654 93.4951 98.8567 93.3863 98.9597 93.2892C98.9139 93.407 98.8557 93.5196 98.7861 93.6251L98.2364 94.5634C97.7445 95.3685 97.0154 96.527 96.0837 97.94C94.2261 100.761 91.5932 104.613 88.6361 108.841C85.6791 113.069 82.9766 116.863 81.0091 119.608L78.6944 122.852L78.0463 123.727C77.9662 123.841 77.873 123.946 77.7686 124.039Z" fill="#263238"/>
<path d="M97.7647 124.357C97.835 124.313 93.4851 117.272 88.049 108.632C82.6129 99.992 78.149 93.0232 78.0787 93.0675C78.0084 93.1118 82.3583 100.152 87.7944 108.792C93.2305 117.433 97.6944 124.401 97.7647 124.357Z" fill="#263238"/>
<path d="M103.895 119.795L111.679 120.029L111.727 118.43L103.943 118.196L103.895 119.795Z" fill="#263238"/>
<path d="M111.317 117.773C111.317 117.69 109.613 117.619 107.51 117.616C105.407 117.613 103.702 117.678 103.702 117.761C103.702 117.844 105.406 117.914 107.509 117.917C109.612 117.921 111.317 117.856 111.317 117.773Z" fill="#263238"/>
<path d="M117.24 93.1154L116.933 105.053L115.267 103.703L113.079 104.954L113.38 93.017L117.24 93.1154Z" fill="#263238"/>
<path d="M76.97 89.9588C76.97 89.9588 74.6148 106.374 75.7316 107.335C81.8888 112.519 90.4474 115.235 93.5086 116.093C93.9542 115.988 94.4808 115.844 95.0768 115.652C95.5965 115.486 96.0838 115.231 96.5177 114.899C97.0728 114.511 97.5713 114.047 97.9992 113.521C98.0654 113.412 98.163 113.326 98.279 113.274C98.395 113.222 98.524 113.206 98.6491 113.229C98.7743 113.251 98.8897 113.311 98.9802 113.401C99.0708 113.49 99.1322 113.605 99.1565 113.729C99.1565 114.309 98.2769 115.757 96.5756 116.822C96.5756 116.822 100.499 123.142 101.749 123.709C102.999 124.277 106.575 125.893 105.973 126.2C105.372 126.507 101.008 125.238 101.008 125.238L92.1777 122.875C92.1777 122.875 62.966 118.294 64.9103 104.879C66.1024 96.6602 67.4044 89.2405 67.8732 87.3755L76.97 89.9588Z" fill="#FFBE9D"/>
<path d="M67.3755 86.5936L64.7541 104.503C64.1754 110.017 67.8384 114.396 72.8035 116.863C80.361 120.61 91.5816 123.286 91.489 123.269C91.3964 123.252 92.2471 115.299 92.2471 115.299C92.2471 115.299 76.5186 108.476 76.0441 105.551C75.5695 102.626 78.0463 90.37 78.0463 90.37L67.3755 86.5936Z" fill="#455A64"/>
<path d="M91.489 123.263C91.4822 123.215 91.4822 123.166 91.489 123.118V122.707L91.6105 121.114L92.1197 115.259L92.1776 115.363L84.2671 111.528L81.9524 110.411C81.1827 110.005 80.4131 109.553 79.6377 109.061C78.8606 108.56 78.1147 108.013 77.404 107.422C77.0452 107.121 76.6922 106.802 76.3508 106.466C76.1617 106.305 76.0063 106.108 75.8936 105.887C75.8369 105.773 75.7941 105.652 75.7663 105.528C75.7293 105.409 75.7022 105.287 75.6853 105.163C75.4307 103.205 75.9515 101.358 76.2235 99.597L77.103 94.4882L78.706 85.829C78.9408 84.7354 79.0745 83.6225 79.1053 82.5044C79.1151 81.6623 78.9413 80.8281 78.596 80.0601C78.3743 79.5768 78.0597 79.1418 77.6702 78.7801C77.3982 78.5368 77.2304 78.4383 77.2419 78.4268C77.4106 78.5087 77.5681 78.6118 77.7107 78.7337C78.1257 79.0847 78.4628 79.5188 78.7002 80.008C79.0761 80.7847 79.2738 81.6356 79.2789 82.4986C79.2658 83.6291 79.1456 84.7559 78.9201 85.8638L77.4734 94.5519L76.6054 99.666L76.3739 101.01C76.2813 101.456 76.2061 101.908 76.1424 102.36C75.9939 103.275 75.9705 104.206 76.073 105.128C76.0865 105.242 76.1097 105.354 76.1424 105.464C76.1658 105.573 76.2027 105.678 76.2524 105.777C76.348 105.975 76.484 106.15 76.6517 106.292C76.9873 106.623 77.3287 106.935 77.6817 107.231C78.3816 107.815 79.1159 108.357 79.8807 108.853C80.633 109.339 81.3968 109.785 82.1549 110.196L84.4349 111.32L92.3107 115.212L92.3801 115.247V115.299L91.8015 121.143L91.6221 122.73L91.57 123.142C91.5489 123.186 91.5216 123.227 91.489 123.263Z" fill="#263238"/>
<path d="M90.0307 114.175C90.0509 114.585 90.0198 114.996 89.9382 115.398C89.8398 116.145 89.6835 117.176 89.4752 118.294C89.2669 119.411 89.0296 120.448 88.8329 121.19C88.7553 121.591 88.6249 121.981 88.4451 122.348C88.3641 122.348 88.7634 120.506 89.1801 118.247C89.3802 116.874 89.6643 115.514 90.0307 114.175Z" fill="#263238"/>
<path d="M91.489 123.263C91.3947 123.261 91.3012 123.245 91.2112 123.217L90.4358 123.032L87.5887 122.29C85.193 121.641 81.8656 120.796 78.2951 119.481C76.6166 118.87 74.9827 118.142 73.4053 117.303C72.1168 116.614 70.886 115.822 69.7249 114.934C68.9436 114.336 68.2067 113.682 67.5201 112.976C67.2771 112.727 67.0977 112.525 66.982 112.397C66.9154 112.331 66.8589 112.254 66.8141 112.171C67.0907 112.403 67.3553 112.649 67.6069 112.907C68.32 113.574 69.0716 114.199 69.858 114.778C71.0253 115.641 72.2556 116.415 73.5384 117.095C75.1124 117.914 76.738 118.63 78.4051 119.238C81.9524 120.541 85.2682 121.421 87.6639 122.134L90.4821 122.968L91.246 123.211C91.3288 123.218 91.4105 123.236 91.489 123.263Z" fill="#263238"/>
<path d="M91.196 116.614C91.4772 116.609 91.7007 116.376 91.6952 116.095C91.6897 115.813 91.4573 115.589 91.1761 115.595C90.8949 115.6 90.6714 115.833 90.6769 116.114C90.6824 116.396 90.9149 116.62 91.196 116.614Z" fill="#263238"/>
<path d="M228.051 31.9627H164.188V229.409H228.051V31.9627Z" fill="#E0E0E0"/>
<path d="M208.609 126.891C209.363 126.86 209.925 125.648 209.865 124.185C209.805 122.721 209.146 121.559 208.392 121.59C207.639 121.621 207.076 122.832 207.136 124.296C207.196 125.76 207.855 126.922 208.609 126.891Z" fill="white"/>
<path d="M156.735 24.9775V31.4414V33.4745V229.409H166.758V33.4745H225.615V229.409H236.645V33.4745V31.4414V24.9775H156.735Z" fill="#263238"/>
<path d="M166.758 33.4744H161.746V229.409H166.758V33.4744Z" fill="#263238"/>
<path opacity="0.5" d="M166.758 33.4744H161.746V229.409H166.758V33.4744Z" fill="black"/>
<path d="M197.225 64.213C197.321 65.9952 197.985 67.6996 199.121 69.0758C200.256 70.452 201.802 71.4273 203.533 71.8586C205.321 72.2988 207.381 72.0902 208.799 73.295C211.229 75.357 209.805 79.6373 211.449 82.4001C212.456 84.103 214.458 84.9371 215.592 86.5531C217.479 89.2406 216.211 93.295 213.642 95.2933C211.073 97.292 207.647 97.674 204.424 97.61C197.335 97.425 190.078 95.1717 184.951 90.1442C182.544 87.781 174.743 78.8033 178.285 65.8522" fill="#263238"/>
<path d="M171.624 83.2574C171.624 83.2574 159.223 94.0538 158.893 92.739C157.157 85.5916 157.643 76.4748 157.921 72.9822C158.118 72.681 158.338 72.3509 158.604 71.986C158.912 71.5655 159.287 71.1994 159.715 70.9029C160.231 70.5135 160.798 70.1959 161.399 69.9588C161.978 69.7966 162.065 69.032 161.567 68.8525C161.069 68.6729 159.484 69.0784 158.014 70.3121C156.544 71.5458 157.14 68.6208 157.343 67.5493C157.545 66.4777 158.002 63.1473 157.719 62.8345C157.308 62.3769 156.723 62.7418 156.561 63.8134C156.399 64.8849 155.641 68.0705 155.08 67.9489C154.519 67.8273 155.612 62.4001 155.612 62.4001C155.612 62.4001 156.035 61.2706 155.392 61.1143C154.235 60.8304 153.5 66.6747 153.448 67.2365C153.408 67.6246 152.794 67.5203 152.869 67.1033C152.945 66.6862 154.079 61.7108 152.904 61.4097C152.001 61.178 152.256 66.2171 151.446 67.1264C150.636 68.0358 151.643 63.2805 150.769 63.072C150.445 63.0025 150.19 62.9967 150.011 65.8058C149.97 68.0676 150.053 70.3299 150.26 72.5826C149.49 80.2918 147.98 103.889 158.633 103.078C171.202 102.116 174.095 92.2003 174.095 92.2003L171.624 83.2574Z" fill="#B78876"/>
<path d="M181.531 79.7474C181.716 78.7569 181.392 74.5692 181.392 74.5692C181.392 74.5692 177.689 74.1001 177.527 70.3179C177.365 66.5356 177.741 57.8127 177.741 57.8127L184.564 54.5344L191.901 60.4539L190.628 79.6894L181.531 79.7474Z" fill="#B78876"/>
<path d="M179.329 64.2104C179.334 63.9417 179.128 63.7203 178.869 63.7157C178.61 63.7112 178.397 63.9253 178.392 64.194C178.387 64.4627 178.593 64.6841 178.852 64.6887C179.111 64.6932 179.325 64.4791 179.329 64.2104Z" fill="#263238"/>
<path d="M177.926 63.6454C177.984 63.7091 178.337 63.4137 178.846 63.3905C179.355 63.3674 179.732 63.628 179.784 63.5585C179.836 63.489 179.749 63.4137 179.587 63.2921C179.366 63.1402 179.102 63.0648 178.835 63.0774C178.567 63.0899 178.311 63.1898 178.106 63.3616C177.943 63.4948 177.897 63.6164 177.926 63.6454Z" fill="#263238"/>
<path d="M185.431 64.4939C185.437 64.2252 185.231 64.0032 184.972 63.9981C184.713 63.9929 184.499 64.2065 184.494 64.4751C184.489 64.7438 184.694 64.9657 184.953 64.9709C185.212 64.9761 185.426 64.7625 185.431 64.4939Z" fill="#263238"/>
<path d="M183.545 63.7496C183.603 63.8133 183.956 63.5179 184.465 63.4948C184.974 63.4716 185.351 63.7323 185.403 63.6627C185.455 63.5932 185.368 63.5179 185.206 63.3963C184.985 63.2445 184.721 63.1691 184.453 63.1816C184.186 63.1942 183.93 63.294 183.724 63.4658C183.568 63.5932 183.516 63.7149 183.545 63.7496Z" fill="#263238"/>
<path d="M181.641 68.1168C181.372 68.0375 181.094 67.9947 180.814 67.9894C180.686 67.9894 180.559 67.9605 180.536 67.862C180.523 67.7181 180.551 67.5734 180.617 67.445L180.982 66.3734C181.324 65.4608 181.596 64.5237 181.798 63.5701C181.388 64.4525 181.046 65.3644 180.773 66.2981L180.42 67.3755C180.341 67.5475 180.321 67.7409 180.362 67.9257C180.38 67.973 180.409 68.0154 180.446 68.0496C180.483 68.0837 180.528 68.1088 180.576 68.1226C180.649 68.1326 180.723 68.1326 180.796 68.1226C181.077 68.1594 181.361 68.1575 181.641 68.1168Z" fill="#263238"/>
<path d="M183.308 68.6382C183.829 68.2965 181.873 69.478 180.843 69.4606C181.019 69.7265 181.282 69.9235 181.586 70.0184C181.891 70.1134 182.219 70.1005 182.515 69.9819C182.655 69.9461 182.787 69.8829 182.903 69.7959C183.019 69.709 183.117 69.5999 183.191 69.475C183.264 69.3501 183.313 69.2119 183.333 69.0683C183.353 68.9247 183.344 68.7785 183.308 68.6382Z" fill="white"/>
<path d="M181.392 74.5692C183.15 74.5222 184.855 73.9626 186.3 72.959C186.3 72.959 185.142 75.7161 181.456 75.496L181.392 74.5692Z" fill="#A36957"/>
<path d="M197.225 64.2709C197.19 64.0045 197.156 63.599 197.115 63.1762C197.075 62.6614 197.007 62.149 196.913 61.6413C195.038 53.7178 188.319 52.1307 186.982 52.1076C185.553 52.1076 183.059 51.233 179.344 55.0615C178.286 56.0785 177.551 57.3859 177.233 58.8194C176.915 60.2529 177.027 61.7485 177.556 63.1183L178.181 62.5391L183.591 61.2069C183.192 59.7068 183.852 57.8649 184.222 57.0077L184.257 56.9729C185.235 62.6549 191.294 63.3442 191.294 63.3442L190.715 78.4036C196.681 77.2046 197.15 67.5145 197.138 64.2362L197.225 64.2709Z" fill="#263238"/>
<path d="M206.594 223.686C206.594 223.686 192.625 176.556 192.358 175.033C192.115 173.672 198.585 140.605 199.528 132.027L179.888 132.212V132.357L170.398 132.617L175.148 226.797L185.565 227.063L185.408 196.104C190.559 211.222 197.075 228.297 197.075 228.297L206.594 223.686Z" fill="#B78876"/>
<path d="M179.159 172.925C179.159 172.925 179.159 173.289 179.101 173.956C179.054 174.888 179.071 175.823 179.153 176.753C179.274 178.131 179.506 179.496 179.847 180.837C180.302 182.47 180.859 184.074 181.514 185.638C182.81 189.021 183.962 192.091 184.783 194.326L185.761 196.967C185.891 197.287 185.995 197.616 186.074 197.952C185.909 197.651 185.768 197.337 185.651 197.014L184.604 194.407C183.73 192.201 182.544 189.142 181.254 185.76L180.316 183.287C180.034 182.511 179.795 181.72 179.599 180.918C179.267 179.56 179.054 178.176 178.962 176.782C178.899 175.842 178.914 174.899 179.008 173.961C179.043 173.631 179.083 173.382 179.118 173.203C179.117 173.108 179.131 173.015 179.159 172.925Z" fill="#A36957"/>
<path d="M185.455 207.358C185.455 207.075 185.634 196.863 185.634 196.863C185.634 196.863 182.214 187.399 182.127 187.683C182.041 187.967 185.455 207.358 185.455 207.358Z" fill="#A36957"/>
<path d="M197.428 228.146L206.594 223.686L207.659 225.661L204.412 227.498C202.196 228.708 194.661 232.652 192.879 232.977C190.912 233.336 197.428 228.146 197.428 228.146Z" fill="#FDCB35"/>
<path d="M192.486 232.71C192.445 232.641 195.801 230.973 199.98 229.003C204.158 227.034 207.583 225.476 207.624 225.528C207.664 225.58 204.314 227.266 200.13 229.235C195.946 231.204 192.526 232.78 192.486 232.71Z" fill="#263238"/>
<path d="M205.286 226.721C205.24 226.721 205.222 226.548 205.246 226.27C205.27 225.9 205.37 225.539 205.541 225.21C205.732 224.85 206.04 224.566 206.414 224.405C206.721 224.283 206.93 224.312 206.935 224.341C206.941 224.37 206.762 224.434 206.53 224.578C206.239 224.767 206.001 225.026 205.836 225.331C205.682 225.642 205.562 225.968 205.477 226.304C205.39 226.565 205.327 226.727 205.286 226.721Z" fill="#263238"/>
<path d="M196.93 228.569C196.93 228.656 197.213 228.766 197.578 228.882C197.943 228.998 198.249 229.085 198.301 229.015C198.353 228.946 198.093 228.725 197.723 228.598C197.352 228.471 196.941 228.482 196.93 228.569Z" fill="#263238"/>
<path d="M196.299 229.061C196.299 229.143 196.542 229.299 196.878 229.415C197.213 229.531 197.555 229.554 197.59 229.478C197.624 229.403 197.364 229.247 197.011 229.125C196.658 229.004 196.322 228.98 196.299 229.061Z" fill="#263238"/>
<path d="M195.778 229.519C195.744 229.594 195.935 229.745 196.195 229.878C196.455 230.011 196.693 230.087 196.774 230.017C196.855 229.948 196.669 229.756 196.386 229.612C196.102 229.467 195.819 229.438 195.778 229.519Z" fill="#263238"/>
<path d="M196.97 228.644C197.02 228.321 196.986 227.99 196.872 227.683C196.778 227.326 196.615 226.992 196.392 226.698C196.251 226.514 196.083 226.352 195.894 226.217C195.786 226.137 195.667 226.073 195.541 226.026C195.379 225.963 195.199 225.963 195.038 226.026C194.969 226.061 194.909 226.111 194.861 226.172C194.814 226.233 194.781 226.304 194.764 226.379C194.748 226.454 194.748 226.533 194.765 226.608C194.783 226.683 194.816 226.753 194.864 226.814C194.991 226.999 195.134 227.171 195.292 227.33C195.555 227.6 195.842 227.846 196.149 228.065C196.418 228.295 196.728 228.472 197.063 228.586C197.092 228.552 196.779 228.314 196.305 227.909C196.033 227.674 195.776 227.423 195.535 227.156C195.398 227.008 195.272 226.849 195.159 226.681C195.055 226.53 195.084 226.345 195.194 226.304C195.304 226.264 195.512 226.304 195.686 226.449C195.852 226.563 196.002 226.7 196.131 226.855C196.347 227.118 196.517 227.416 196.635 227.735C196.717 228.048 196.829 228.353 196.97 228.644Z" fill="#263238"/>
<path d="M196.97 228.465C196.714 228.207 196.404 228.009 196.062 227.886C195.692 227.719 195.304 227.598 194.905 227.526C194.664 227.483 194.42 227.464 194.175 227.469C194.037 227.468 193.899 227.483 193.765 227.515C193.68 227.534 193.601 227.571 193.533 227.625C193.492 227.657 193.46 227.698 193.439 227.746C193.417 227.793 193.408 227.845 193.412 227.897C193.453 228.038 193.528 228.166 193.628 228.273C193.729 228.38 193.853 228.461 193.99 228.511C194.212 228.623 194.451 228.699 194.696 228.737C195.099 228.795 195.506 228.808 195.911 228.778C196.612 228.731 196.988 228.494 196.959 228.459C196.608 228.516 196.255 228.551 195.9 228.563C195.512 228.564 195.125 228.531 194.742 228.465C194.541 228.423 194.346 228.353 194.164 228.256C193.984 228.169 193.793 227.996 193.782 227.88C193.77 227.764 193.99 227.752 194.216 227.764C194.437 227.758 194.657 227.771 194.876 227.804C195.25 227.861 195.618 227.954 195.975 228.083C196.297 228.235 196.629 228.363 196.97 228.465Z" fill="#263238"/>
<path d="M197.607 228.048C197.665 228.135 199.794 227.318 202.277 226.096C204.759 224.874 206.675 223.779 206.611 223.686C206.548 223.594 204.522 224.573 202.051 225.789C199.58 227.005 197.549 227.961 197.607 228.048Z" fill="#263238"/>
<path d="M176.335 226.692L185.553 226.756L185.403 229.432H184.824C182.15 229.432 171.219 229.235 169.46 228.673C167.481 228.059 176.335 226.692 176.335 226.692Z" fill="#FDCB35"/>
<path d="M185.394 229.176C185.399 229.096 181.786 228.827 177.325 228.576C172.864 228.325 169.245 228.186 169.24 228.266C169.236 228.346 172.848 228.614 177.309 228.865C181.77 229.117 185.39 229.256 185.394 229.176Z" fill="#263238"/>
<path d="M182.475 228.975C182.44 228.975 182.527 228.795 182.712 228.569C182.963 228.26 183.269 228.001 183.615 227.805C183.997 227.59 184.434 227.496 184.87 227.532C185.212 227.573 185.38 227.694 185.362 227.723C185.345 227.752 185.154 227.723 184.865 227.723C184.491 227.748 184.127 227.855 183.8 228.036C183.479 228.226 183.177 228.445 182.897 228.691C182.666 228.888 182.509 228.998 182.475 228.975Z" fill="#263238"/>
<path d="M175.64 226.82C175.577 226.884 175.773 227.121 176.022 227.399C176.271 227.677 176.485 227.886 176.601 227.851C176.717 227.816 176.601 227.509 176.323 227.214C176.045 226.918 175.704 226.756 175.64 226.82Z" fill="#263238"/>
<path d="M174.767 226.947C174.697 227.005 174.836 227.266 175.079 227.527C175.322 227.787 175.582 227.961 175.658 227.915C175.733 227.868 175.6 227.608 175.345 227.335C175.091 227.063 174.859 226.889 174.767 226.947Z" fill="#263238"/>
<path d="M174.061 227.086C173.98 227.133 174.061 227.353 174.211 227.584C174.361 227.816 174.523 227.996 174.616 227.961C174.709 227.926 174.68 227.689 174.523 227.44C174.367 227.19 174.136 227.04 174.061 227.086Z" fill="#263238"/>
<path d="M175.635 226.907C175.868 226.664 176.039 226.368 176.132 226.044C176.266 225.707 176.327 225.346 176.312 224.984C176.3 224.765 176.251 224.549 176.167 224.347C176.122 224.227 176.057 224.115 175.976 224.017C175.863 223.886 175.703 223.805 175.53 223.791C175.45 223.783 175.369 223.793 175.293 223.819C175.217 223.845 175.146 223.886 175.087 223.941C175.028 223.995 174.98 224.062 174.948 224.135C174.916 224.209 174.899 224.289 174.9 224.37C174.899 224.584 174.92 224.797 174.963 225.007C175.029 225.356 175.13 225.698 175.264 226.026C175.363 226.348 175.531 226.645 175.756 226.895C175.714 226.575 175.63 226.261 175.507 225.963C175.41 225.636 175.336 225.303 175.287 224.966C175.257 224.775 175.244 224.581 175.247 224.387C175.247 224.213 175.386 224.069 175.501 224.08C175.617 224.092 175.768 224.248 175.843 224.434C175.923 224.617 175.972 224.813 175.988 225.013C176.016 225.344 175.985 225.677 175.895 225.997C175.777 226.291 175.69 226.596 175.635 226.907Z" fill="#263238"/>
<path d="M175.744 226.756C175.785 226.756 175.658 226.38 175.287 225.858C175.064 225.544 174.8 225.261 174.5 225.019C174.321 224.87 174.127 224.74 173.922 224.63C173.799 224.564 173.669 224.514 173.534 224.48C173.444 224.462 173.352 224.462 173.262 224.48C173.207 224.488 173.154 224.507 173.107 224.537C173.06 224.567 173.02 224.607 172.99 224.654C172.94 224.782 172.925 224.921 172.945 225.057C172.966 225.193 173.021 225.322 173.106 225.43C173.234 225.63 173.397 225.807 173.586 225.951C173.91 226.183 174.259 226.378 174.628 226.53C174.963 226.726 175.354 226.803 175.739 226.75C175.4 226.637 175.07 226.501 174.749 226.345C174.419 226.169 174.105 225.964 173.812 225.731C173.655 225.603 173.52 225.451 173.412 225.279C173.359 225.209 173.322 225.128 173.303 225.042C173.284 224.956 173.284 224.867 173.302 224.781C173.302 224.729 173.563 224.781 173.754 224.885C173.957 224.98 174.151 225.095 174.333 225.227C174.625 225.447 174.892 225.697 175.131 225.974C175.484 226.449 175.692 226.774 175.744 226.756Z" fill="#263238"/>
<path d="M176.549 226.692C178.013 226.924 179.494 227.022 180.976 226.988C182.455 227.054 183.937 227.002 185.408 226.831C183.937 226.699 182.459 226.65 180.982 226.687C178.54 226.658 176.555 226.611 176.549 226.692Z" fill="#263238"/>
<path d="M204.528 99.516C204.528 99.516 204.91 98.102 203.839 89.4433C203.371 85.6726 200.807 83.3384 198.053 81.9136V81.8615L197.815 81.7919C195.551 80.6978 193.12 79.9892 190.622 79.6952L180.906 79.5388C180.906 79.5388 173.794 78.6526 169.263 83.5933C164.732 88.5339 161.642 91.4415 161.642 91.4415L168.881 100.13L170.82 98.207C170.82 98.207 170.617 102.215 171.943 104.543L175.067 110.057L172.996 119.776C171.711 123.478 167.475 137.014 169.136 150.422C171.19 167.028 171.52 171.853 171.52 171.853L194.98 175.068C194.98 175.068 204.354 139.91 201.143 125.945C198.938 116.347 197.254 116.799 196.71 114.72L197.318 99.776L204.528 99.516Z" fill="#FDCB35"/>
<path d="M171.826 96.6877C172.364 95.7799 172.742 95.0095 172.671 94.967C172.599 94.9246 172.105 95.6262 171.567 96.5341C171.029 97.442 170.65 98.212 170.722 98.255C170.793 98.297 171.288 97.596 171.826 96.6877Z" fill="#263238"/>
<path d="M193.701 113.139C193.458 113.214 193.208 113.265 192.954 113.289C192.468 113.37 191.768 113.457 190.894 113.55C186.341 114.007 181.749 113.925 177.214 113.307C176.346 113.185 175.646 113.069 175.166 112.977C174.914 112.944 174.665 112.886 174.425 112.803C174.679 112.796 174.933 112.815 175.183 112.861L177.243 113.098C178.979 113.289 181.387 113.486 184.054 113.533C186.722 113.579 189.135 113.469 190.877 113.341L192.943 113.179C193.193 113.14 193.447 113.126 193.701 113.139Z" fill="#263238"/>
<path d="M201.606 139.452C201.588 139.609 201.557 139.764 201.513 139.915L201.195 141.23L200.958 142.18C200.859 142.522 200.732 142.893 200.605 143.286C200.338 144.074 200.078 144.995 199.65 145.957L199.025 147.486C198.805 148.013 198.521 148.54 198.255 149.102C197.74 150.231 197.057 151.361 196.369 152.577C193.237 157.753 189.106 162.252 184.216 165.812C183.059 166.6 182 167.376 180.918 167.978C180.386 168.291 179.882 168.615 179.373 168.882L177.903 169.629C176.977 170.133 176.086 170.463 175.322 170.787C174.934 170.949 174.581 171.106 174.246 171.233L173.32 171.546L172.035 171.975C171.889 172.03 171.738 172.073 171.584 172.102C171.723 172.028 171.868 171.966 172.018 171.917L173.279 171.436L174.194 171.1C174.524 170.967 174.871 170.799 175.253 170.631C176.005 170.283 176.89 169.936 177.805 169.426L179.257 168.662C179.761 168.395 180.258 168.082 180.785 167.752C181.855 167.144 182.914 166.362 184.049 165.574C188.895 162.014 193.005 157.544 196.149 152.415C196.843 151.216 197.526 150.098 198.047 148.98C198.313 148.401 198.625 147.909 198.828 147.381L199.465 145.87C199.899 144.914 200.171 144.005 200.454 143.223C200.587 142.829 200.726 142.47 200.83 142.128L201.091 141.19L201.461 139.892C201.497 139.742 201.545 139.595 201.606 139.452Z" fill="#263238"/>
<path d="M204.158 94.4476C204.043 94.5305 203.921 94.6023 203.793 94.6619C203.55 94.7893 203.185 94.9805 202.711 95.2064C201.376 95.8854 199.946 96.358 198.469 96.608C197.436 96.7567 196.383 96.6976 195.373 96.4343C194.806 96.2849 194.265 96.0485 193.77 95.7334C193.252 95.3917 192.789 94.9716 192.399 94.4882C191.627 93.4316 190.933 92.3205 190.321 91.1635C189.644 90.0051 188.765 88.8467 187.428 88.4065C186.091 87.9663 184.685 88.2964 183.377 88.6555C182.138 89.0927 180.849 89.371 179.541 89.4838C178.76 89.5111 177.982 89.3747 177.257 89.0834C176.532 88.792 175.876 88.3521 175.331 87.7919C174.787 87.2317 174.365 86.5637 174.093 85.8306C173.821 85.0975 173.706 84.3157 173.754 83.5353C173.794 82.8882 173.94 82.2521 174.188 81.6529C174.385 81.1384 174.682 80.668 175.062 80.2686C174.758 80.7178 174.502 81.1973 174.298 81.6993C174.075 82.2911 173.948 82.9149 173.922 83.5469C173.877 84.47 174.072 85.3889 174.489 86.2135C174.906 87.038 175.53 87.7399 176.3 88.2501C177.253 88.9119 178.393 89.249 179.552 89.2116C180.838 89.0913 182.103 88.8111 183.319 88.3775C183.985 88.1727 184.666 88.0236 185.356 87.9315C186.083 87.8344 186.823 87.9017 187.521 88.1285C188.214 88.375 188.838 88.7865 189.338 89.3274C189.809 89.8442 190.223 90.4114 190.57 91.0187C191.171 92.1657 191.852 93.2689 192.607 94.3202C193.322 95.2342 194.312 95.8924 195.431 96.1968C196.409 96.4611 197.43 96.53 198.434 96.3995C199.895 96.169 201.315 95.7322 202.653 95.1021L203.758 94.6098C203.886 94.5431 204.02 94.4888 204.158 94.4476Z" fill="white"/>
<path d="M190.391 114.969C190.59 114.673 190.73 114.34 190.802 113.99C190.86 113.511 190.809 113.025 190.652 112.569C190.496 112.112 190.238 111.697 189.899 111.355C189.433 110.879 188.859 110.521 188.227 110.312C187.495 110.066 186.738 109.901 185.97 109.82C185.154 109.71 184.286 109.646 183.389 109.455C182.449 109.285 181.56 108.903 180.791 108.337C180.406 108.032 180.08 107.659 179.83 107.237C179.597 106.829 179.403 106.401 179.251 105.956C179.012 105.133 178.696 104.334 178.308 103.57C177.943 102.956 177.429 102.443 176.814 102.079C176.2 101.714 175.504 101.51 174.79 101.485C173.814 101.47 172.862 101.779 172.081 102.365C171.802 102.591 171.535 102.833 171.283 103.089C171.322 103.003 171.375 102.923 171.439 102.852C171.611 102.639 171.805 102.445 172.018 102.273C172.803 101.625 173.789 101.271 174.807 101.271C175.564 101.282 176.306 101.485 176.963 101.862C177.62 102.239 178.17 102.777 178.563 103.425C178.968 104.201 179.298 105.013 179.546 105.852C179.797 106.725 180.298 107.504 180.987 108.094C181.717 108.629 182.557 108.993 183.447 109.159C184.315 109.351 185.183 109.426 185.999 109.542C187.631 109.744 189.181 110.214 190.049 111.21C190.4 111.578 190.66 112.024 190.809 112.51C190.957 112.997 190.991 113.512 190.906 114.013C190.848 114.282 190.736 114.537 190.576 114.76C190.449 114.905 190.391 114.975 190.391 114.969Z" fill="white"/>
<path d="M199.47 156.104C198.698 156.027 197.919 156.061 197.156 156.203C196.262 156.387 195.38 156.619 194.511 156.898C193.354 157.283 192.148 157.499 190.929 157.541C189.442 157.571 187.967 157.283 186.601 156.695C185.016 156.03 183.654 154.925 182.677 153.51C181.634 151.905 181.189 149.983 181.421 148.082C181.532 147.082 181.834 146.112 182.313 145.227C182.811 144.311 183.509 143.519 184.355 142.91C185.177 142.302 186.091 141.752 186.502 140.906C186.708 140.486 186.775 140.011 186.693 139.551C186.602 139.085 186.446 138.635 186.23 138.213C185.745 137.376 185.417 136.457 185.264 135.502C185.172 134.567 185.311 133.625 185.669 132.757C186.348 131.151 187.627 129.875 189.234 129.2C190.603 128.618 192.087 128.352 193.574 128.424C194.776 128.486 195.982 128.451 197.179 128.32C198.076 128.19 198.932 127.855 199.679 127.341C200.157 127.018 200.553 126.587 200.836 126.084C201.021 125.737 201.067 125.505 201.085 125.534C201.049 125.736 200.982 125.931 200.888 126.113C200.627 126.638 200.241 127.091 199.765 127.434C199.012 127.977 198.142 128.337 197.225 128.482C196.02 128.633 194.804 128.683 193.591 128.633C192.137 128.577 190.69 128.848 189.355 129.426C187.821 130.085 186.603 131.314 185.958 132.855C185.621 133.682 185.492 134.579 185.582 135.467C185.736 136.391 186.057 137.278 186.531 138.085C186.76 138.533 186.926 139.011 187.023 139.504C187.116 140.028 187.039 140.568 186.803 141.045C186.305 142.006 185.368 142.557 184.564 143.159C183.77 143.737 183.109 144.477 182.622 145.329C182.135 146.182 181.835 147.128 181.74 148.106C181.518 149.929 181.939 151.773 182.932 153.318C183.873 154.697 185.188 155.778 186.722 156.434C188.053 157.018 189.493 157.312 190.946 157.298C192.148 157.273 193.341 157.078 194.488 156.718C195.364 156.451 196.255 156.234 197.156 156.07C197.728 155.969 198.312 155.941 198.892 155.989C199.088 156.01 199.281 156.049 199.47 156.104Z" fill="white"/>
<path d="M191.282 174.575C191.282 174.575 191.282 174.17 191.328 173.446C191.38 172.43 191.2 171.416 190.802 170.48C190.517 169.853 190.019 169.348 189.396 169.056C188.658 168.773 187.868 168.654 187.081 168.708C186.163 168.781 185.239 168.667 184.367 168.372C183.915 168.164 183.519 167.852 183.209 167.463C182.899 167.069 182.631 166.644 182.411 166.194C182.03 165.318 181.532 164.497 180.929 163.756C180.346 163.091 179.648 162.535 178.869 162.117C177.541 161.398 176.018 161.126 174.523 161.34C173.515 161.481 172.544 161.824 171.671 162.348C171.051 162.725 170.756 162.997 170.733 162.974C170.71 162.951 170.797 162.893 170.936 162.765C171.145 162.578 171.368 162.406 171.601 162.25C172.474 161.673 173.461 161.292 174.495 161.132C176.038 160.88 177.621 161.14 179.002 161.873C179.817 162.302 180.546 162.875 181.155 163.565C181.473 163.923 181.756 164.311 182 164.723C182.243 165.152 182.457 165.598 182.683 166.032C183.035 166.905 183.679 167.628 184.506 168.077C185.341 168.358 186.225 168.47 187.104 168.407C187.938 168.357 188.772 168.493 189.546 168.806C190.214 169.133 190.743 169.688 191.039 170.37C191.434 171.34 191.589 172.391 191.49 173.434C191.49 173.799 191.427 174.083 191.392 174.268C191.371 174.376 191.334 174.479 191.282 174.575Z" fill="white"/>
<path d="M177.4 126.681C177.258 127.019 177.1 127.349 176.925 127.671C176.458 128.545 176.166 129.501 176.063 130.486C176.025 131.159 176.171 131.83 176.485 132.426C176.877 133.108 177.318 133.761 177.805 134.378C178.358 135.123 178.759 135.97 178.982 136.871C179.206 137.772 179.248 138.708 179.107 139.626C178.956 140.549 178.59 141.424 178.036 142.178C177.483 142.932 176.759 143.544 175.924 143.964C175.196 144.335 174.392 144.534 173.574 144.543C172.71 144.535 171.861 144.305 171.11 143.876C170.358 143.447 169.729 142.834 169.281 142.093C169.142 141.855 169.03 141.603 168.945 141.34C168.911 141.251 168.889 141.158 168.881 141.062C168.91 141.062 169.009 141.439 169.385 142.03C169.927 142.856 170.703 143.503 171.613 143.889C172.233 144.16 172.904 144.296 173.58 144.289C174.355 144.267 175.115 144.069 175.802 143.709C176.592 143.304 177.276 142.718 177.799 142C178.321 141.282 178.668 140.451 178.812 139.574C178.947 138.692 178.907 137.792 178.695 136.925C178.482 136.058 178.101 135.242 177.573 134.523C177.085 133.891 176.646 133.223 176.26 132.525C175.935 131.887 175.793 131.171 175.849 130.457C175.971 129.448 176.302 128.475 176.821 127.602C176.994 127.289 177.133 127.051 177.232 126.895C177.278 126.816 177.334 126.744 177.4 126.681Z" fill="white"/>
<path d="M194.835 107.242C194.786 107.016 194.763 106.785 194.766 106.553L194.673 104.671L194.372 98.456C194.256 96.0289 194.181 93.8221 194.158 92.2351C194.158 91.4358 194.158 90.7929 194.158 90.3469C194.147 90.1142 194.163 89.881 194.204 89.6519C194.253 89.8783 194.276 90.1095 194.274 90.3411L194.366 92.2235C194.447 93.8801 194.552 96.0463 194.667 98.438C194.783 100.831 194.858 103.072 194.881 104.659C194.881 105.458 194.881 106.101 194.881 106.547C194.893 106.78 194.877 107.013 194.835 107.242Z" fill="#263238"/>
<path d="M194.633 99.904C194.633 99.904 195.605 111.592 194.488 112.374C188.302 116.701 180.073 118.444 177.128 118.954C176.717 118.809 176.242 118.624 175.692 118.375C175.219 118.164 174.784 117.874 174.408 117.518C173.919 117.089 173.491 116.596 173.135 116.052C173.091 115.933 173.01 115.832 172.904 115.764C172.798 115.696 172.672 115.664 172.546 115.674C172.42 115.684 172.301 115.735 172.207 115.818C172.112 115.902 172.048 116.015 172.024 116.139C171.948 116.678 172.683 118.16 174.188 119.342C175.692 120.524 172.73 120.593 171.647 120.634C170.565 120.674 167.232 120.97 166.989 121.323C166.63 121.838 167.111 122.331 168.187 122.261C169.263 122.192 172.515 122.221 172.515 122.806C172.515 123.391 167.018 123.524 167.018 123.524C167.018 123.524 165.861 123.362 165.814 124.034C165.785 125.25 171.601 124.659 172.18 124.613C172.568 124.566 172.591 125.192 172.18 125.227C171.769 125.262 166.682 125.227 166.642 126.478C166.607 127.428 171.445 126.038 172.504 126.64C173.563 127.242 168.725 127.312 168.731 128.221C168.731 128.557 168.777 128.8 171.549 128.36C173.528 127.947 175.484 127.425 177.405 126.796C177.405 126.796 206.171 124.329 205.448 111.343C204.962 102.557 205.118 104.178 204.58 99.562" fill="#B78876"/>
</svg>
